<?xml version="1.0" encoding="utf-8"?>
<!-- Generator: Adobe Illustrator 27.5.0, SVG Export Plug-In . SVG Version: 6.00 Build 0)  -->
<svg version="1.1" xmlns="http://www.w3.org/2000/svg" xmlns:xlink="http://www.w3.org/1999/xlink" x="0px" y="0px"
	 viewBox="0 0 650 500" style="enable-background:new 0 0 650 500;" xml:space="preserve">
<g id="BACKGROUND">
	<rect style="fill:#FFFFFF;" width="650" height="500"/>
</g>
<g id="OBJECTS">
	<path style="opacity:0.45;fill:#F7EEEB;" d="M598.31,293.79c-14.14-22.48-33.51-40.39-53.62-56.51
		c-16.85-13.52-35.44-27.44-42.39-49.01c-3.8-11.76-3.69-24.76-7.96-36.32c-5.693-15.411-23.324-34.082-38.335-40.812
		c-22.978-10.301-50.747,5.319-74.614-2.709c-9.856-3.316-12.461-9.651-19.252-16.304c-7.272-7.123-16.012-13.317-24.409-19.026
		c-16.474-11.201-34.708-20.196-54.35-24.109c-34.59-6.89-71.49,2.95-100.039,24.44c-17.16,12.92-31.35,29.87-41.96,48.92
		c-10.14,18.22-14.62,38.42-24.01,56.82c-17.6,34.48-54.13,53.59-71.41,88.27c-12.71,25.53-13.23,56.73-6.54,84.88
		c6.69,28.14,20,53.81,33.98,78.54c0.065,0.114,0.128,0.213,0.189,0.307h23.081c88.078-0.299,467.575-1.482,476.589,0.303h17.54
		c12.79-11.14,24.46-41.91,26.79-60.49C620.99,343.94,612.44,316.27,598.31,293.79z"/>
	<g>
		<g>
			<g>
				<path style="fill:#FE8E68;" d="M414.18,265.635c-3.202,5.02-11.559,10.872-17.492,10.787
					c-20.201-0.373-26.846-14.132-29.028-19.145c0.411-0.101,1.101-0.183,1.59-0.243c3.725-0.536,7.521-4.216,8.635-8.371
					c1.433-5.398,3.189-15.956,2.982-22.67l25.548,14.141c-0.04,1.938-0.168,4.059-0.354,6.197c-0.132,1.303-0.26,2.578-0.41,3.821
					c-0.141,1.188-0.301,2.317-0.447,3.364c-0.47,3.501,1.095,6.974,4.043,8.902L414.18,265.635z"/>
			</g>
			<g>
				<path style="fill:#3D302A;" d="M416.383,210.635c-1.378,3.618-0.795,7.727,0.605,11.336c0.99,2.553,3.189,0.3,5.927,0.346
					c4.235,0.071,7.547-4.338,10.113-16.032c1.627-8.579,2.04-12.933,1.715-13.757c-1.169-2.965-5.026-4.559-8.207-4.838"/>
			</g>
			<g>
				<path style="fill:#FE8E68;" d="M422.832,184.925c6.677,8.049,9.11,30.702,3.467,46.476
					c-4.012,11.216-8.667,18.459-14.115,18.226c-8.257-0.352-24.266-7.135-29.484-12.812c-9.387-10.213-6.656-30.226-4.717-42.834
					c1.762-11.454,7.118-26.317,21.511-23.488C408.958,172.354,416.837,177.699,422.832,184.925z"/>
			</g>
			<g>
				<path style="fill:#3D302A;" d="M384.892,192.171c1.484,1.772,4.093,2.164,6.243,2.512c2.888,0.467,4.324,1.454,5.816,4.078
					c0.954,1.679,1.902,3.518,3.605,4.43c0.802,0.429,2.017,0.489,2.413-0.329c-0.762-0.505-1.018-1.552-0.826-2.446
					c0.192-0.894,0.744-1.665,1.324-2.373c0.49,0.665,0.542,1.544,0.811,2.325c0.357,1.035,1.129,1.92,2.107,2.413
					c0.155,0.078,0.326,0.149,0.498,0.125c0.234-0.032,0.408-0.226,0.559-0.407c1.054-1.258,2.082-3.662,3.543-4.428
					c0.29,1.374,0.816,2.456,1.664,3.591c0.738,0.988,1.622,2.006,2.832,2.242c0.391,0.076,0.876,0.019,1.061-0.334
					c0.225-0.429-0.127-0.864-0.073-1.299c0.051-0.411,0.244-0.591,0.455-0.939c0.538-0.89,1.025-1.752,1.729-2.53
					c1.429,1.625,2.99,3.134,4.662,4.508c0.369,0.303,0.913,0.604,1.282,0.301c0.196-0.161,0.249-0.435,0.29-0.686
					c0.205-1.27,0.41-2.54,0.615-3.811c0.115-0.713,0.534-1.643,1.234-1.462c0.339,0.088,0.544,0.421,0.728,0.719
					c0.235,0.382,4.335,4.713,4.422,4.377c0.639-2.458,1.952-4.7,2.59-7.159c4.111-15.843-14.252-28.575-28.284-28.642
					c-3.123-0.015-6.044,0.64-9.069,1.31c-3.227,0.716-6.568,1.248-9.503,2.857c-4.106,2.251-7.224,6.337-6.422,11.22"/>
			</g>
			<g>
				<path style="fill:#3D302A;" d="M391.654,187.977c2.035,2.309,2.58,5.556,2.768,8.628c0.282,4.626-0.098,9.438-2.24,13.548
					c-0.609,1.169-1.057,6.96-1.999,6.64c-0.298-0.101-0.249-4.588-1.036-7.009c-1.219-3.751-6.843-5.175-9.37-2.812
					c-4.037,3.775-1.668,8.354-0.334,11.202c0.805,1.718,2.073,3.651,2.287,5.473c0.275,2.333,0.35,10.816-1.17,12.805
					c-1.27,1.662-2.622-6.363-3.766-7.943c-8.511-11.77-16.675-41.744-2.137-48.236c2.209-0.986,9.035-1.501,11.1-0.242"/>
			</g>
		</g>
		<path style="fill:#BC744A;" d="M445.447,426.219c0.844,0.144,1.694,0.258,2.565,0.287c4.678,0.153,9.196-0.878,13.772-1.665
			c4.022-0.692,5.113-1.074,5.026-5.923c-0.696-38.413-6.35-76.716-16.508-113.767c-1.552-5.659-3.236-11.356-6.207-16.416
			c-5.066-8.627-16.714-16.083-25.638-20.265c-1.262-0.591-6.483,2.729-7.752,2.155c-1.115-0.504-2.093-1.277-3.214-1.767
			c-3.278-1.435-5.476,1.564-8.22,2.809c-1.415,0.642-2.999,1.046-4.562,0.981c-1.27-0.053-2.42-0.818-3.584-0.217
			c-5.221,2.697-18.185-17.344-18.185-17.344l-5.612,5.866l-16.425,17.207l-41.063,56.569c0,0-7.45,46.362-12.573,76.749
			c-0.886,5.245-4.413,16.568-5.109,20.543c0.15-0.855,35.046-1.094,36.932-1.094c24.264,0,46.864,0,71.129,0
			c3.99,0,14.719,1.694,17.522-1.237c3.447-3.605,7.442-20.123,7.647-24.753c0.689-15.568-0.377-31.018-0.586-46.684
			c0.085,6.368,1.917,12.13,2.699,18.37c1.006,8.03,2.45,16.054,3.746,24.043c1.042,6.424,2.04,12.856,2.839,19.316
			c0.36,2.906-0.103,4.638,2.359,5.775C438.516,426.714,443.03,425.807,445.447,426.219z"/>
		<path style="fill:#FE8E68;" d="M432.269,412.917c-1.902-0.784-13.63-3.693-18.919-4.787c-2.775-0.574-15.328-3.83-18.238-3.83
			c-2.91,0-6.869,4.158-6.869,4.158l1.049,14.308c2.798-0.28,6.547,1.175,8.562,1.455c2.014,0.28,8.842,0.315,13.038-1.79
			c0.24-0.121,0.456-0.255,0.683-0.383c1.69,1.497,3.812,2.959,6.155,3.076c0,0,1.835-0.185,1.661-0.928
			c-0.085-0.361-1.297-2.222-2.519-4.037c1.796,1.831,4.738,4.797,8.129,4.965c0,0,1.836-0.185,1.661-0.928
			c-0.103-0.438-1.857-3.07-3.282-5.163c0.019,0.016,0.045,0.034,0.063,0.049c1.486,1.311,5.026,5.834,9.222,6.042
			c0,0,1.836-0.185,1.661-0.928c-0.063-0.27-0.757-1.376-1.61-2.673c1.071,0.815,2.383,1.69,3.973,2.475
			c4.532,2.238,7.107,0.539,7.107,0C443.797,423.458,434.172,413.7,432.269,412.917z"/>
		<path style="fill:#874C2E;" d="M391.479,396.3c0,0,7.304,4.141,6.655,12.94c-0.649,8.799-3.293,19.003-14.315,17.934
			C372.798,426.105,391.479,396.3,391.479,396.3z"/>
		<path style="fill:#BC744A;" d="M381.446,426.3c-26.417,9.171-61.771,0.411-84.18-14.822c-14.04-9.523-22.995-21.607-21.49-33.418
			c3.911-30.68,28.021-100.996,48.885-111.262c14.177-6.981,31.384-9.875,40.965-11.028c4.498-0.548,7.313-0.684,7.313-0.684
			l-3.481,9.816l-17.423,49.119c-0.645,29.155-21.509,46.46-17.364,53.245c4.145,6.766,36.918,14.079,54.125,25.674
			C393.569,396.167,399.611,419.456,381.446,426.3z"/>
		<g>
			<path style="fill:#874C2E;" d="M275.779,378.816l-0.055,2.045c0.003,0.34-0.045,0.68-0.001,1.018l0.117,1.013
				c0.098,0.671,0.096,1.356,0.269,2.013l0.485,1.973c0.804,2.58,1.914,5.071,3.427,7.314c2.903,4.561,6.744,8.478,10.979,11.839
				c8.49,6.738,18.266,11.776,28.465,15.442c10.178,3.747,20.854,6.218,31.676,7.115c5.408,0.465,10.857,0.519,16.273,0.055
				c5.419-0.416,10.802-1.413,16.019-3.035c-5.11,1.946-10.508,3.099-15.945,3.767c-5.449,0.617-10.955,0.693-16.432,0.364
				c-5.481-0.311-10.928-1.135-16.289-2.306c-5.362-1.173-10.65-2.69-15.816-4.553c-5.149-1.908-10.185-4.136-15.006-6.776
				c-4.811-2.647-9.465-5.63-13.673-9.186c-4.215-3.526-8.039-7.606-10.874-12.345c-1.447-2.348-2.479-4.942-3.186-7.593
				C275.512,384.308,275.458,381.522,275.779,378.816z"/>
		</g>
		<g>
			<path style="fill:#874C2E;" d="M352.04,314.028c0.021,5.528-0.75,11.068-2.185,16.432c-1.453,5.363-3.568,10.534-6.031,15.505
				c-1.226,2.49-2.542,4.932-3.89,7.343c-1.334,2.417-2.701,4.818-3.82,7.285c-0.551,1.231-1.027,2.497-1.22,3.746
				c-0.053,0.613-0.103,1.238,0.073,1.772c0.038,0.288,0.21,0.512,0.31,0.769c0.19,0.229,0.321,0.482,0.557,0.697
				c1.785,1.79,4.348,3.004,6.784,4.167c9.98,4.545,20.577,7.915,30.682,12.461c5.05,2.271,10.052,4.719,14.698,7.781l0.863,0.585
				c0.287,0.199,0.56,0.461,0.838,0.689c0.516,0.505,0.972,1.067,1.333,1.678c0.741,1.212,1.242,2.532,1.628,3.87
				c0.736,2.69,1.049,5.463,1.073,8.226c-0.185-2.754-0.636-5.496-1.453-8.11c-0.856-2.587-2.186-5.105-4.68-6.318
				c-4.667-2.899-9.682-5.21-14.758-7.339c-5.091-2.102-10.236-4.088-15.412-6.017c-5.167-1.956-10.37-3.832-15.447-6.145
				c-2.499-1.239-5.067-2.406-7.203-4.556c-0.272-0.256-0.486-0.616-0.72-0.928c-0.17-0.376-0.396-0.74-0.461-1.144
				c-0.236-0.798-0.165-1.586-0.089-2.337c0.244-1.485,0.777-2.821,1.359-4.103c1.186-2.557,2.58-4.95,3.933-7.358
				c1.352-2.408,2.715-4.799,3.996-7.232C347.946,335.754,351.522,325.104,352.04,314.028z"/>
		</g>
		<path style="fill:#BC744A;" d="M420.509,269.428c-2.523,2.503-13.74,10.492-24.437,10.492c-1.779,0-3.657-0.156-5.651-0.528
			c-8.975-1.643-16.543-7.626-20.962-14.49c-0.821-1.29-1.545-2.62-2.131-3.95c-0.802-1.721-1.369-3.481-1.701-5.182
			c4.498-0.548,8.799-1.682,9.503-2.483c0.763,5.24,7.235,14.705,17.031,16.484c1.232,0.235,2.385,0.332,3.5,0.352h0.02
			c4.595,0.078,8.134-1.388,10.54-2.874c0.02,0,4.694-3.683,4.713-3.703L420.509,269.428z"/>
		<ellipse style="fill:#56211A;" cx="405.325" cy="217.358" rx="1.814" ry="3.579"/>
		<ellipse style="fill:#FFFFFF;" cx="406.1" cy="218.771" rx="0.786" ry="1.094"/>
		<ellipse style="fill:#56211A;" cx="424.84" cy="218.999" rx="1.814" ry="3.579"/>
		<path style="fill:#FFFFFF;" d="M418.628,234.378c-0.022,0.755-3.182,5.352-6.253,4.987c-2.576-0.306-4.834-5.136-3.478-7.337
			C409.623,231.26,418.65,233.623,418.628,234.378z"/>
		<g>
			<g>
				<path style="fill:#3D302A;" d="M399.93,208.566c2.246-1.981,7.65-1.212,9.948,0.257c0.45,0.288,0.937-0.362,0.565-0.732
					c-1.555-1.546-4.151-1.638-6.216-1.562c-1.568,0.057-4.139-0.011-4.676,1.817C399.484,208.574,399.767,208.71,399.93,208.566
					L399.93,208.566z"/>
			</g>
		</g>
		<g>
			<g>
				<path style="fill:#3D302A;" d="M421.877,209.908c1.373-0.105,2.648-0.357,4.018-0.016c1.373,0.342,2.383,1.18,3.603,1.822
					c0.264,0.139,0.5-0.134,0.386-0.386c-1.199-2.648-5.854-3.617-8.172-2.025C421.471,209.469,421.529,209.934,421.877,209.908
					L421.877,209.908z"/>
			</g>
		</g>
		<g>
			<g>
				<path style="fill:#CC6144;" d="M416.367,217.452c-0.091,2.059-0.012,4.169,0.327,6.205c0.122,0.734,1.064,2.686,0.911,3.314
					c-0.166,0.685-1.362,1.533-1.768,2.208c-0.206,0.341,0.195,0.694,0.523,0.523c1.219-0.632,2.618-1.568,2.365-3.04
					c-0.235-1.366-0.86-2.678-1.071-4.085c-0.255-1.704-0.274-3.413-0.426-5.125C417.181,216.906,416.392,216.891,416.367,217.452
					L416.367,217.452z"/>
			</g>
		</g>
		<ellipse style="fill:#FFFFFF;" cx="425.387" cy="220.413" rx="0.786" ry="1.163"/>
		<g>
			<g>
				<path style="fill:#CC6144;" d="M394.822,242.999c2.816,3.307,7.639,5.534,11.971,5.656c0.432,0.012,0.544-0.687,0.104-0.769
					c-4.586-0.851-7.979-2.425-11.646-5.316C394.947,242.33,394.564,242.696,394.822,242.999L394.822,242.999z"/>
			</g>
		</g>
		<g>
			<g>
				<path style="fill:#874C2E;" d="M372.926,253.452c-6.502-3.081-9.981,6.689-10.638,11.478
					c-1.263,9.205,2.824,17.783,6.537,25.929c3.9,8.556,8.36,16.826,12.347,25.337c2.064,4.406,3.886,8.92,5.262,13.59
					c1.439,4.882,1.603,10.325,3.37,15.03c0.241,0.642,1.069,0.5,1.151-0.156c0.861-6.82-2.159-15.208-4.511-21.589
					c-2.252-6.109-5.161-11.948-8.064-17.766c-3.788-7.592-7.631-15.256-10.745-23.157c-1.561-3.962-2.849-8.104-3.125-12.38
					c-0.221-3.416,1.034-17.327,7.683-14.58C373.182,255.596,373.896,253.912,372.926,253.452L372.926,253.452z"/>
			</g>
		</g>
		<g>
			<g>
				<path style="fill:#874C2E;" d="M410.914,263.967c8.18,3.111,5.32,18.061,4.202,24.543c-1.361,7.89-3.911,15.539-7.106,22.866
					c-6.233,14.291-14.63,27.546-22.148,41.171c-0.62,1.123,1.085,2.123,1.721,1.006c9.347-16.406,20.002-32.329,26.174-50.306
					c2.864-8.341,4.691-17.118,4.818-25.956c0.084-5.877-0.781-13.03-7.149-15.178C410.239,261.713,409.776,263.534,410.914,263.967
					L410.914,263.967z"/>
			</g>
		</g>
		<path style="fill:#874C2E;" d="M399.998,345.596c-6.319-0.187-12.637-0.375-18.956-0.562c-1.02-0.03-1.618,0.825-1.732,1.732
			c-1.191,9.489-1.604,19.164-3.03,28.611c-0.168,1.112,0.441,2.166,1.67,2.192c6.232,0.13,12.466,0.316,18.699,0.384
			c0.327,0.004,0.6-0.074,0.831-0.199c0.01-0.005,0.02-0.012,0.03-0.017c0.061-0.035,0.123-0.068,0.177-0.11
			c0.287-0.2,0.519-0.506,0.632-0.945c2.405-9.332,2.409-19.779,3.411-29.354C401.829,346.376,400.855,345.621,399.998,345.596z"/>
		<g>
			<g>
				<path style="fill:#874C2E;" d="M425.076,384.088c0.275-5.148-0.236-10.359-0.273-15.518c-0.038-5.344,0.122-10.682,0.406-16.018
					c0.275-5.173,0.693-10.336,1.284-15.483c0.609-5.301,1.718-10.551,2.279-15.849c0.075-0.711-1.06-0.84-1.232-0.167
					c-1.244,4.875-1.725,10.057-2.313,15.051c-0.644,5.464-1.115,10.952-1.379,16.447c-0.256,5.333-0.288,10.681-0.168,16.018
					c0.116,5.157,0.119,10.487,1.177,15.548C424.884,384.246,425.069,384.208,425.076,384.088L425.076,384.088z"/>
			</g>
		</g>
		<g>
			<g>
				<path style="fill:#874C2E;" d="M372.518,263.061c1.689,6.93,9.447,12.807,16.271,13.83c0.577,0.086,0.829-0.708,0.246-0.893
					c-3.521-1.115-6.844-2.571-9.684-4.978c-2.746-2.327-4.426-5.195-6.361-8.157C372.831,262.62,372.447,262.771,372.518,263.061
					L372.518,263.061z"/>
			</g>
		</g>
		<g>
			<g>
				<path style="fill:#874C2E;" d="M395.244,276.925c1.19-0.269,2.369-0.55,3.543-0.883c1.048-0.297,2.148-0.502,3.064-1.113
					c0.273-0.182,0.173-0.614-0.169-0.623c-2.155-0.056-4.649,1.128-6.653,1.839C394.542,276.318,394.732,277.041,395.244,276.925
					L395.244,276.925z"/>
			</g>
		</g>
		<g>
			<g>
				<path style="fill:#CC6144;" d="M383.652,211.992c0.659-1.013,1.676,2.128,1.718,2.392c0.191,1.22-0.059,2.31-0.372,3.477
					c-0.117,0.439,1.238,0.093,1.399-0.218c0.881-1.703,0.947-4.664-0.584-6.061c-0.957-0.873-2.815-0.633-3.515,0.461
					C381.987,212.53,383.433,212.329,383.652,211.992L383.652,211.992z"/>
			</g>
		</g>
		<g>
			<g>
				<path style="fill:#CC6144;" d="M385.809,214.396c-0.008-0.132,0.005-0.261,0.039-0.389c0.014-0.039,0.005-0.072-0.026-0.099
					c-0.544-0.663-1.387-0.971-2.206-0.658c-0.05,0.019-0.223,0.098-0.15,0.176c0.195,0.208,0.579,0.2,0.829,0.324
					c0.208,0.103,0.365,0.244,0.535,0.395c0.18,0.16,0.395,0.226,0.584,0.38C385.496,214.591,385.809,214.521,385.809,214.396
					L385.809,214.396z"/>
			</g>
		</g>
		<g>
			<g>
				<path style="fill:#CC6144;" d="M408.682,240.071c0.757,1.054,2.395,1.603,3.569,0.895c0.088-0.053,0.082-0.12-0.031-0.114
					c-1.049,0.05-2.005-0.249-2.637-1.129C409.43,239.51,408.501,239.819,408.682,240.071L408.682,240.071z"/>
			</g>
		</g>
		<g>
			<g>
				<path style="fill:#CC6144;" d="M401.262,219.125c-0.116,0.811-0.092,1.463,0.369,2.171c0.395,0.605,0.902,1.051,1.621,1.189
					c0.081,0.015,0.501-0.071,0.4-0.211c-0.388-0.54-0.978-0.846-1.318-1.452c-0.304-0.541-0.58-1.173-0.621-1.792
					C401.706,218.914,401.278,219.016,401.262,219.125L401.262,219.125z"/>
			</g>
		</g>
		<g>
			<g>
				<path style="fill:#CC6144;" d="M425.247,224.071c0.075,0,0.257-0.112,0.099-0.112
					C425.27,223.959,425.088,224.071,425.247,224.071L425.247,224.071z"/>
			</g>
		</g>
		<g>
			<g>
				<path style="fill:#CC6144;" d="M426.357,223.86c0.656-0.338,1.594-1.333,0.969-2.081c-0.049-0.058-0.236,0.012-0.262,0.07
					c-0.313,0.708-0.376,1.467-1.145,1.863C425.483,223.936,426.154,223.965,426.357,223.86L426.357,223.86z"/>
			</g>
		</g>
		<g>
			<g>
				<path style="fill:#874C2E;" d="M425.366,344.101c0.284-4.247,2.227-7.569,4.831-10.857c2.02-2.55,4.54-4.201,6.857-6.397
					c0.252-0.239-0.007-0.692-0.342-0.588c-3.379,1.055-6.116,4.492-8.139,7.234c-2.119,2.873-5.06,6.923-3.76,10.683
					C424.918,344.478,425.345,344.422,425.366,344.101L425.366,344.101z"/>
			</g>
		</g>
		<g>
			<g>
				<path style="fill:#874C2E;" d="M424.861,346.626c1.072-1.305,1.749-2.902,2.69-4.305c1.115-1.663,2.411-3.208,3.841-4.608
					c0.277-0.271,2.928-2.978,3.185-0.806c0.163,1.374-2.582,1.89-3.389,2.379c-0.907,0.551-1.519,0.984-1.521,2.1
					c-0.001,0.362,0.537,0.54,0.71,0.192c1.078-2.168,4.968-2.095,5.378-5.001c0.165-1.167-0.774-1.912-1.913-1.793
					c-2.048,0.215-4.182,3.202-5.33,4.632c-1.605,2.001-3.495,4.487-3.877,7.078C424.619,346.611,424.765,346.744,424.861,346.626
					L424.861,346.626z"/>
			</g>
		</g>
		<g>
			<g>
				<path style="fill:#874C2E;" d="M385.165,399.359c0.008,3.459-0.053,6.805-1.265,10.098c-1.206,3.278-3.396,5.779-5.425,8.55
					c-0.154,0.21,0.138,0.447,0.337,0.337c5.921-3.28,8.918-12.785,6.894-19.058C385.613,398.997,385.164,399.039,385.165,399.359
					L385.165,399.359z"/>
			</g>
		</g>
		<g>
			<g>
				<path style="fill:#874C2E;" d="M411.534,367.534c-0.849,5.333-1.835,10.185-4.588,14.928c-2.736,4.713-6.64,8.804-11.215,11.763
					c-0.366,0.237-0.04,0.805,0.343,0.587c9.167-5.225,16.886-16.216,16.254-27.171
					C412.304,367.215,411.609,367.058,411.534,367.534L411.534,367.534z"/>
			</g>
		</g>
		<g>
			<g>
				<path style="fill:#874C2E;" d="M441.565,231.858c1.152-0.471,2.632-0.919,3.363-1.99c0.112-0.165-0.039-0.374-0.218-0.379
					c-1.257-0.036-2.481,0.886-3.502,1.522C440.785,231.275,441.059,232.065,441.565,231.858L441.565,231.858z"/>
			</g>
		</g>
		<g>
			<g>
				<path style="fill:#874C2E;" d="M441.729,234.848c0.695,0.478,1.832,0.918,2.628,0.43c0.231-0.141,0.24-0.489,0-0.628
					c-0.327-0.189-0.72-0.237-1.084-0.326c-0.397-0.096-0.787-0.221-1.164-0.377C441.563,233.724,441.299,234.552,441.729,234.848
					L441.729,234.848z"/>
			</g>
		</g>
		<g>
			<g>
				<path style="fill:#874C2E;" d="M440.67,240.528c0.677,0.404,1.581,1.051,2.409,0.996c0.2-0.013,0.354-0.226,0.238-0.415
					c-0.437-0.711-1.453-1.062-2.179-1.381C440.605,239.494,440.145,240.215,440.67,240.528L440.67,240.528z"/>
			</g>
		</g>
	</g>
	<g>
		<polyline style="fill:none;stroke:#000000;stroke-width:2.1886;stroke-linecap:round;stroke-miterlimit:10;" points="81.5,431.47 
			108.6,431.47 154.19,431.47 173.18,431.47 221.09,431.47 573.26,431.47 590.8,431.47 605.67,431.47 		"/>
		
			<line style="fill:none;stroke:#000000;stroke-width:2.1886;stroke-linecap:round;stroke-miterlimit:10;" x1="74.874" y1="431.474" x2="45.5" y2="431.474"/>
		
			<line style="fill:none;stroke:#000000;stroke-width:2.1886;stroke-linecap:round;stroke-miterlimit:10;" x1="614.833" y1="431.474" x2="609.909" y2="431.474"/>
	</g>
	<g>
		<path style="fill:#2D2442;" d="M546.754,425.428H380.758c-1.604,0-2.909,1.305-2.909,2.909v0.212c0,1.604,1.305,2.909,2.909,2.909
			h165.996c1.604,0,2.909-1.305,2.909-2.909v-0.212C549.663,426.732,548.358,425.428,546.754,425.428z"/>
		<g>
			<path style="fill:#2D2442;" d="M579.164,351.479c-34.54-0.349-69.081-0.698-103.621-1.047c-4.905-0.05-9.81-0.099-14.715-0.149
				c-0.762-0.008-1.745,0.444-2.066,1.185c-9.49,21.912-18.981,43.823-28.471,65.735c-1.354,3.127-2.709,6.254-4.063,9.381
				c-0.045,0.104-0.069,0.207-0.1,0.31c-0.001,0.002-0.001,0.004-0.002,0.005c-0.03,0.101-0.059,0.202-0.076,0.302
				c-0.272,1.268,0.373,2.758,1.934,2.949c0.363,0.106,0.735,0.129,1.085,0.039c35.501,0.277,71.002,0.555,106.502,0.832
				c5.068,0.04,10.136,0.079,15.204,0.119c1.132,0.009,1.931-0.764,2.307-1.756c9.463-24.959,18.925-49.918,28.388-74.877
				C582.037,353.016,580.596,351.494,579.164,351.479z"/>
			<g>
				<path style="fill:#2D2442;" d="M579.164,349.838c-31.883-0.322-63.767-0.645-95.65-0.967c-3.883-0.039-7.766-0.078-11.65-0.118
					c-3.513-0.035-7.572-0.651-11.036-0.112c-5.146,0.801-6.468,8.889-8.228,12.954c-6.327,14.608-12.654,29.216-18.981,43.823
					c-2.71,6.258-5.428,12.512-8.131,18.773c-1.02,2.362-2.015,5.22,0.67,7.013c1.356,0.905,3.413,0.622,4.885,0.642
					c3.944,0.054,7.889,0.062,11.834,0.092c7.889,0.062,15.778,0.123,23.667,0.185c15.778,0.123,31.556,0.247,47.334,0.37
					c7.865,0.061,15.73,0.123,23.595,0.184c3.167,0.025,6.335,0.049,9.502,0.074c2.444,0.019,4.864,0.487,6.755-1.309
					c2.048-1.946,2.74-6.381,3.705-8.928c1.385-3.653,2.77-7.305,4.154-10.958c3.231-8.523,6.462-17.045,9.693-25.568
					c3-7.914,6.001-15.828,9.001-23.741c1.502-3.963,5.684-10.708-0.684-12.352c-2.047-0.528-2.92,2.637-0.873,3.166
					c2.095,0.541-5.05,17.39-5.763,19.272c-2.308,6.088-4.616,12.175-6.924,18.263c-2.308,6.088-4.616,12.175-6.924,18.263
					c-1.039,2.739-2.077,5.479-3.116,8.218c-1.132,2.986-1.95,7.407-3.808,10.044c-2.394,3.397-7.379,2.331-10.919,2.303
					c-3.215-0.025-6.431-0.05-9.646-0.075c-6.574-0.051-13.148-0.103-19.723-0.154c-13.148-0.103-26.297-0.205-39.445-0.308
					c-13.148-0.103-26.297-0.205-39.445-0.308c-1.36-0.011-3.663,0.572-4.625-0.637c-1.226-1.541-0.534,0.684-0.067-2.093
					c0.389-2.312,2.117-4.887,3.047-7.036c2.749-6.347,5.498-12.694,8.247-19.041c5.272-12.173,10.545-24.346,15.817-36.519
					c1.17-2.701,2.114-6.934,3.954-9.13c2.461-2.937,6.358-2.148,9.716-2.114c6.796,0.069,13.591,0.137,20.387,0.206
					c29.891,0.302,59.781,0.604,89.672,0.906C581.278,353.142,581.279,349.859,579.164,349.838z"/>
			</g>
		</g>
		<ellipse style="fill:#5A4F72;" cx="499.634" cy="393.174" rx="8.007" ry="5.836"/>
		<ellipse style="fill:#5A4F72;" cx="515.028" cy="393.767" rx="4.177" ry="3.045"/>
	</g>
	<g>
		<path style="fill:#C1ADA4;" d="M319.262,410.114c5.11-0.613,14.159-1.985,14.387-5.131c-3.307-2.137-6.954-4.299-10.887-4.491
			c-3.137-0.153-6.181,1.003-9.052,2.279c-2.441,1.085-4.838,2.271-7.182,3.554c-0.962,0.526-3.479,2.408-3.519,3.719
			c-0.05,1.629,2.942,0.666,4.129,0.75C311.189,411.082,315.246,410.596,319.262,410.114z"/>
		<path style="fill:#FE8E68;" d="M307.188,407.448c0,0,6.796,22.252,10.393,22.785c3.598,0.533,38.775,0.799,39.708,0.4
			c0.933-0.4,1.066-1.066,1.066-1.066s22.386,1.466,22.785,0.933s0-3.198-1.066-3.598s-34.911-7.995-37.842-9.061
			s-12.126-0.799-12.126-0.799l-1.865-12.925L307.188,407.448z"/>
		<path style="fill:#433735;" d="M315.398,128.243c2.204,2.361,3.4,5.634,3.237,8.86c-0.097,1.923-0.652,3.791-1.23,5.628
			c-1.113,3.536-2.432,7.199-5.183,9.685c-0.446,0.403-1.006,0.792-1.597,0.685c-1.103-3.396-2.206-6.793-3.308-10.189
			c-0.53-1.632-1.062-3.271-1.36-4.961c-0.505-2.857-0.322-5.848,0.644-8.583c0.439-1.242,1.07-2.47,2.118-3.268
			C311.274,124.155,313.662,126.384,315.398,128.243z"/>
		<g>
			<g>
				<path style="fill:#9B8580;" d="M250.218,316.482c-0.357,3.479,0.179,7.154,0.373,10.633c0.11,1.977,0.22,3.96,0.215,5.94
					c-0.003,1.149-0.343,2.547,0.051,3.628c0.042,0.114,0.207,0.193,0.3,0.079c1.537-1.873,0.666-6.342,0.595-8.599
					c-0.122-3.893-0.306-7.789-0.457-11.681C251.268,315.778,250.288,315.803,250.218,316.482L250.218,316.482z"/>
			</g>
		</g>
		<g>
			<g>
				<path style="fill:#9B8580;" d="M260.133,309.618c-3.699,8.402-5.754,16.952-10.824,24.805c-0.287,0.445,0.425,0.859,0.709,0.414
					c4.483-7.043,9.361-16.708,10.538-25.041C260.587,309.565,260.249,309.354,260.133,309.618L260.133,309.618z"/>
			</g>
		</g>
		<path style="fill:#2D2442;" d="M178.811,431.474l2.276-76.874l16.71,76.874h47.919c-3.184-25.574-17.312-132.464-32.074-141.525
			l-57.997-36.112c0,0-33.562,8.754-32.829,57.264c2.681,46.726,8.393,101.714,10.407,120.372H178.811z"/>
		<path style="fill:#EED9CE;" d="M333.521,405.061c-1.245,1.886-7.578,0.469-9.451,0.651c-1.675,0.163-3.263,0.797-4.891,1.221
			c-5.184,1.352-10.974,0.642-15.635,3.284c-0.145,0.082-0.31,0.17-0.47,0.122c-0.176-0.054-0.261-0.248-0.324-0.421
			c-2.976-8.243-5.303-16.845-7.909-25.245c-3.916-12.623-7.833-25.246-11.749-37.869c-2.023-6.52-4.046-13.041-6.069-19.561
			l-14.226-65.931l6.325-46.475l1.499-10.965l0.109-0.832c0,0,0.306,0.109,0.875,0.306c1.981,0.7,7.069,2.604,12.705,5.351
			c9.028,4.41,19.467,11.02,20.89,18.505c0.004,0.026,0.007,0.052,0.011,0.078c0.752,5.246,1.596,10.48,2.42,15.715
			c1.462,9.287,2.943,18.571,4.428,27.855c1.847,11.551,3.703,23.101,5.562,34.651c1.937,12.035,3.878,24.069,5.822,36.103
			c1.734,10.738,3.471,21.476,5.209,32.213c1.24,7.66,2.481,15.32,3.723,22.98c0.344,2.119,0.687,4.238,1.031,6.357
			c0.061,0.373,0.378,1.24,0.26,1.603C333.631,404.867,333.583,404.968,333.521,405.061z"/>
		<path style="fill:#EED9CE;" d="M270.731,203.041l-0.109,0.832l-1.499,10.965l-6.325,46.475c0,0-30.957,19.073-30.957,19.073
			c-1.617,0.996-3.009,7.844-3.667,9.559c-2.137,5.572-4.003,11.358-6.446,16.802c-0.501,1.116-0.95,4.154-2.06,4.833
			c-2.232,1.365-11.306-0.507-14.108-0.687c-10.375-0.667-20.861-2.19-30.35-6.662c-7.502-3.535-14.146-8.537-21.207-12.829
			c-4.315-2.623-9.126-4.261-13.693-6.369c-3.05-1.408-9.642-4.108-10.817-7.696c-0.339-1.036,0.186-2.136,0.686-3.104
			c2.18-4.223,3.63-9.311,6.205-13.231c2.374-3.615,5.298-6.875,7.613-10.578c4.659-7.451,8.771-15.322,14.59-21.97
			c9.905-11.317,18.228-24.248,28.432-35.533c4.53-5.012,18.647-9.783,25.398-10.057c6.139-0.252,12.092,0.755,17.301,2.21
			c4.191,1.182,7.912,2.648,10.844,3.972c4.301,1.948,6.916,3.6,6.916,3.6L270.731,203.041z"/>
		<g id="XMLID_56_">
			<g id="XMLID_66_">
				<path style="fill:#FE8E68;" d="M282.172,264.868c3.26-2.005,18.492-11.727,19.856-15.24c0.633-1.63,4.09-6.65,7.074-11.359
					c1.767-2.787,6.242-8.256,7.372-9.427c1.937-2.009,4.735-6.986,6.424-5.349c2.105,2.04-1.182,7.143-3.035,10.273
					c-0.68,1.149-1.411,2.302-1.705,3.603c-0.294,1.302-0.228,2.272,0.535,3.367c0.416,0.596,3.263,0.88,4.218,0.839
					c7.194-0.316,10.315,0.107,15.681-1.891s10.379-4.819,15.44-7.496c0.868-0.459,1.394-1.4,3.352-1.581
					c0.977-0.09,3.044,0.043,2.935,1.018c-0.086,0.759-6.13,5.48-6.753,5.922c-3.35,2.38-2.973,2.112-6.323,4.493
					c-0.521,0.37-1.081,0.799-1.209,1.424c-0.107,0.525,0.121,1.057,0.132,1.593c0.019,0.958-0.644,1.781-1.297,2.484
					c-1.145,1.233-2.365,2.384-3.637,3.475c-1.781,1.525-0.327,2.826-2.267,4.165c-2.139,1.476-7.684,2.977-9.876,4.364
					c-1.754,1.111-3.519,2.227-5.445,2.998c-2.308,0.923-4.783,1.326-7.218,1.828c-6.673,1.377-18.349,13.467-23.994,17.46"/>
			</g>
			<path id="XMLID_64_" style="fill:#FE8E68;" d="M320.484,263.486c0,0,8.386-1.061,15.057-4.163
				c6.673-3.103,23.16-13.276,23.16-13.276s0.228-0.579,0.053-0.982c-0.175-0.403-2.68-0.962-4.698-0.085
				s-14.937,6.485-14.937,6.485"/>
			<path id="XMLID_58_" style="fill:#FE8E68;" d="M318.82,260.671c0,0,10.626-2.216,17.298-5.319
				c6.672-3.102,23.16-13.276,23.16-13.276s0.228-0.579,0.053-0.983c-0.175-0.404-2.679-0.962-4.698-0.085
				c-2.019,0.876-14.937,6.485-14.937,6.485"/>
			<path id="XMLID_57_" style="fill:#FE8E68;" d="M322.177,254.559c0,0,10.625-2.217,17.298-5.319
				c6.672-3.102,17.033-8.404,22.902-12.41c0.387-0.264,0.487-1.445,0.312-1.848c-0.175-0.404-2.68-0.961-4.698-0.085
				c-2.018,0.876-14.937,6.484-14.937,6.484"/>
		</g>
		<path style="fill:#FE8E68;" d="M282.765,190.913c0,0,25.716,15.685,31.734-16.05c1.459-13.131,3.283-34.47-7.66-42.814
			c-10.943-8.344-36.112-9.301-36.659,15.457c0.957,7.113,0.684,7.66,0.684,7.66s-9.438-2.599-7.386,9.165
			c1.094,5.335,2.508,7.25,2.508,7.25s-19.312,15.122-19.332,15.138c-1.777,1.392-3.266,3.71-5.73,2.592
			c-0.269-0.122-0.53-0.277-0.822-0.325s-0.633,0.041-0.775,0.3c-0.09,0.164-0.083,0.362-0.089,0.549
			c-0.026,0.945-0.398,1.841-0.651,2.751c-0.973,3.494,0.036,6.764,1.875,9.776c1.564,2.562,3.776,4.736,6.4,6.201
			c2.51,1.401,5.328,2.163,8.156,2.675c3.557,0.644,7.333,0.892,10.854-0.087c2.158-0.6,3.627-1.272,5.134-3.023
			c0.282-0.328,0.549-0.673,0.74-1.061c0.432-0.876,0.447-1.893,0.439-2.87c-0.001-0.136-0.007-0.284-0.097-0.386
			c-0.094-0.107-0.248-0.129-0.388-0.152c-1.568-0.265-0.534-1.086,0.123-1.773c0.651-0.68,1.308-1.355,1.967-2.027
			c1.383-1.412,2.778-2.812,4.178-4.208C279.561,194.064,281.158,192.483,282.765,190.913z"/>
		<ellipse style="fill:#56211A;" cx="301.915" cy="161.139" rx="1.814" ry="3.579"/>
		<g>
			<g>
				<path style="fill:#433735;" d="M305.839,148.823c-3.924-1.442-10.686,0.106-13.169,3.604c-0.169,0.239,0.116,0.626,0.396,0.515
					c1.971-0.781,3.623-2.038,5.712-2.631c2.338-0.664,4.566-0.477,6.94-0.59C306.246,149.696,306.32,149,305.839,148.823
					L305.839,148.823z"/>
			</g>
		</g>
		<path style="fill:#FE8E68;" d="M315.457,157.867c-0.591,1.902,0.004,4.071,0.775,5.907c0.771,1.836,1.956,3.464,3.131,5.073
			c0.528,0.724,1.057,1.448,1.585,2.172c-1.655,0.55-3.267,1.229-4.816,2.029c-0.931,0.481-1.934,1.133-2.119,2.165"/>
		<path style="fill:#FFFBF9;" d="M303.618,177.133c1.107,0.379,2.3,0.51,3.462,0.366c0.116-0.014,0.252-0.024,0.331,0.063
			c0.05,0.056,0.06,0.136,0.065,0.211c0.077,1.147-0.415,2.247-0.896,3.291c-0.323,0.701-0.653,1.413-1.161,1.995
			c-1.066,1.22-3.459,1.994-4.98,1.25c-0.683-0.334-1.186-0.953-1.578-1.605c-1.067-1.772-1.819-4.77-0.913-6.769
			c0.605-1.336,0.763-0.842,1.938-0.302c1.087,0.499,2.218,0.897,3.321,1.345C303.342,177.034,303.479,177.085,303.618,177.133z"/>
		<path style="fill:#EED9CE;" d="M283.677,259.306c-18.761,8.712-47.966,24.439-47.966,24.439l-4.195-30.275l-44.136,0.365
			c0,0,12.767,70.399,22.615,76.965c0,0,11.672,8.754,30.64-4.377c12.517-8.665,41.64-31.453,55.946-43.908L283.677,259.306z"/>
		<g>
			<g>
				<path style="fill:#DBC4BD;" d="M200.756,310.333c-0.286-4.839-2.579-10.088-3.811-14.765
					c-1.749-6.643-3.503-13.283-5.137-19.955c-2.953-12.055-5.47-24.181-8.105-36.303c-0.077-0.353-0.668-0.282-0.638,0.086
					c0.981,12.085,4.175,24.18,7.082,35.913c1.604,6.47,3.252,12.935,5.064,19.35c1.399,4.954,2.389,11.369,5.066,15.803
					C200.404,310.671,200.772,310.596,200.756,310.333L200.756,310.333z"/>
			</g>
		</g>
		<g>
			<g>
				<path style="fill:#DBC4BD;" d="M295.514,280.923c-9.164,6.045-17.328,13.972-24.84,21.923c-0.657,0.696,0.391,1.748,1.052,1.052
					c7.641-8.055,16.082-14.862,24.565-21.968C296.847,281.464,296.12,280.523,295.514,280.923L295.514,280.923z"/>
			</g>
		</g>
		<g>
			<g>
				<path style="fill:#DBC4BD;" d="M264.887,269.033c3.026-0.455,6.066-2.007,8.8-3.349c2.382-1.169,5.519-2.28,7.089-4.488
					c0.281-0.395-0.182-0.785-0.56-0.728c-2.591,0.391-5.096,2.498-7.435,3.667c-2.715,1.357-5.724,2.355-8.283,3.977
					C263.989,268.434,264.34,269.115,264.887,269.033L264.887,269.033z"/>
			</g>
		</g>
		<g>
			<g>
				<path style="fill:#9B8580;" d="M239.77,188.549c-3.39-3.485-6.712,2.724-7.729,5.553c-2.724,7.574-1.097,16.598,1.107,24.073
					c2.683,9.099,7.171,17.427,9.568,26.644c2.73,10.497,4.741,21.013,4.33,31.903c-0.025,0.672,0.995,0.662,1.039,0
					c0.934-14.197-2.483-30.074-7.78-43.208c-2.675-6.634-5.675-13.01-7.257-20.031c-0.889-3.946-1.452-8.069-1.267-12.122
					c0.072-1.587,2.792-16.706,7.282-12.105C239.513,189.718,240.219,189.011,239.77,188.549L239.77,188.549z"/>
			</g>
		</g>
		<g>
			<g>
				<path style="fill:#9B8580;" d="M273.552,201.622c0.856,1.428,1.712,2.855,2.568,4.283c0.171,0.955,0.342,1.909,0.512,2.864
					c0.088,1.047,0.042,2.119-0.027,3.165c-0.189,2.852-0.894,5.652-1.356,8.466c-0.891,5.43-1.583,10.89-2.509,16.316
					c-1.785,10.463-4.176,20.791-7.556,30.859c-0.187,0.556,0.682,0.787,0.874,0.241c4.72-13.462,7.292-27.444,9.397-41.519
					c0.975-6.517,6.534-22.067-2.246-25.45c-0.354-0.136-0.691,0.267-0.597,0.597c0.028,0.098,0.056,0.196,0.083,0.294
					C272.832,202.219,273.53,202.11,273.552,201.622L273.552,201.622z"/>
			</g>
		</g>
		<path style="fill:#D6CED7;" d="M261.379,330.389c0.007-0.89-0.8-1.794-1.732-1.732c-6.307,0.423-12.614,0.846-18.921,1.269
			c-0.955,0.064-1.704,0.742-1.732,1.732c-0.274,9.713,0.243,19.537-0.274,29.235c-0.047,0.885,0.833,1.8,1.732,1.732
			c6.216-0.471,12.438-0.888,18.649-1.421c0.05-0.004,0.094-0.019,0.142-0.026c0.708,0.044,1.383-0.32,1.528-1.245
			C262.267,350.394,261.306,340.032,261.379,330.389z"/>
		<g>
			<g>
				<path style="fill:#594C4A;" d="M262.577,160.348c-2.834,0.384-4.987,1.062-7.049-1.537c-0.826-1.041-1.492-2.133-2.777-2.617
					c-0.165-0.062-0.295,0.179-0.171,0.293c1.601,1.462,2.752,3.973,4.859,4.778c1.668,0.637,3.732,0.178,5.276-0.589
					C262.915,160.577,262.761,160.323,262.577,160.348L262.577,160.348z"/>
			</g>
		</g>
		<circle style="fill:none;stroke:#F9F9F9;stroke-width:1.0943;stroke-miterlimit:10;" cx="301.459" cy="161.458" r="8.754"/>
		<g>
			<g>
				<path style="fill:#F9F9F9;" d="M310.48,159.16c0.323-0.188,0.461-0.489,0.746-0.73c0.417-0.354,0.967-0.553,1.499-0.65
					c0.494-0.091,1.017-0.092,1.489,0.092c0.442,0.173,0.546,0.586,0.948,0.762c0.112,0.049,0.214,0.025,0.287-0.075
					c0.032-0.044,0.064-0.088,0.096-0.132c0.085-0.117,0.056-0.274,0-0.394c-0.513-1.098-1.976-1.195-3.018-0.974
					c-0.889,0.188-2.487,0.869-2.323,1.988C310.222,159.171,310.386,159.215,310.48,159.16L310.48,159.16z"/>
			</g>
		</g>
		<g>
			<path style="fill:#433735;" d="M262.456,145.771c4.47,3.22,32.423-0.73,41.445-4.865c18.341-8.406,20.137-23.22,15.852-26.002
				c-0.517-0.336-1.092-0.604-1.704-0.678c-1.438-0.174-2.763,0.719-3.935,1.569c0.461-1.675,2.126-8.974-2.325-11.869
				c-5.976-3.887-13.502,2.686-14.726,3.505c-8.528,5.707-13.135,6.682-13.135,6.682s1.503-14.391-10.283-3.335
				c-3.712,3.482-10.601,6.729-14.299,10.226c-3.878,3.666-6.086,9.66-3.849,14.78"/>
		</g>
		<g>
			<path style="fill:#433735;" d="M275.559,137.051c2.555,2.081,3.701,5.414,4.439,8.626c1.111,4.836,1.555,9.984,0.015,14.701
				c-0.438,1.341,0.106,7.536-0.944,7.364c-0.333-0.054-1.068-4.801-2.325-7.22c-1.946-3.747-8.135-4.264-10.39-1.323
				c-2.793,3.643-0.998,6.207,0.243,9.839c0.921,2.698,0.012,6.089-3.288,7.025c-3.075,0.871-2.192-1.458-3.418-3.642
				c-2.636-4.695-5.4-8.805-7.172-14.036c-2.794-8.249-5.094-20.768,3.539-26.483c2.159-1.43,9.278-3.173,11.68-2.205"/>
		</g>
		<ellipse style="fill:#FFFFFF;" cx="302.553" cy="162.735" rx="0.786" ry="1.026"/>
		<g>
			<g>
				<path style="fill:#F9F9F9;" d="M273.456,155.456c1.287,2.538,4.281,3.039,6.82,3.676c3.664,0.918,7.577,1.643,11.366,1.629
					c0.662-0.002,0.62-0.922,0-1c-3.249-0.408-6.475-0.693-9.685-1.391c-2.635-0.573-6.225-1.079-8.019-3.287
					C273.708,154.8,273.306,155.161,273.456,155.456L273.456,155.456z"/>
			</g>
		</g>
		<g>
			<g>
				<path style="fill:#CC6144;" d="M277.514,184.613c1.36,2.603,3.498,5.165,6.158,6.508c0.122,0.061,0.251-0.09,0.149-0.193
					c-2.101-2.13-4.186-4.087-5.973-6.51C277.703,184.22,277.396,184.387,277.514,184.613L277.514,184.613z"/>
			</g>
		</g>
		<g>
			<g>
				<path style="fill:#433735;" d="M329.946,153.747c1.25-0.817,2.593-1.586,3.586-2.72c0.071-0.081,0.005-0.247-0.116-0.2
					c-1.398,0.541-2.575,1.522-3.767,2.411C329.351,153.459,329.621,153.959,329.946,153.747L329.946,153.747z"/>
			</g>
		</g>
		<g>
			<g>
				<path style="fill:#433735;" d="M331.759,157.225c0.936-0.2,2.124-0.418,2.919-0.971c0.209-0.146,0.132-0.463-0.129-0.478
					c-0.969-0.055-2.094,0.38-2.997,0.699C331.081,156.642,331.266,157.331,331.759,157.225L331.759,157.225z"/>
			</g>
		</g>
		<g>
			<g>
				<path style="fill:#433735;" d="M332.098,161.515c0.584-0.157,1.164-0.292,1.766-0.359c0.49-0.055,0.993-0.051,1.473-0.161
					c0.141-0.032,0.178-0.255,0.042-0.32c-1.038-0.502-2.441-0.258-3.469,0.156C331.497,160.997,331.645,161.637,332.098,161.515
					L332.098,161.515z"/>
			</g>
		</g>
		<g>
			<g>
				<path d="M147.113,289.535c-2.548-0.081-2.445,3.897-2.679,5.601c-0.318,2.308-0.966,5.289,1.019,7.035
					c0.343,0.302,0.803,0.079,0.849-0.352c0.012-0.108,0.023-0.216,0.035-0.324c0.026-0.247-0.263-0.331-0.441-0.253
					c-0.114,0.049-0.228,0.098-0.342,0.148c0.227,0.059,0.454,0.119,0.681,0.178c-1.167-1.777-1.04-3.503-0.786-5.511
					c0.255-2.021,0.11-4.705,1.845-6.088C147.476,289.823,147.313,289.541,147.113,289.535L147.113,289.535z"/>
			</g>
		</g>
		<g>
			<g>
				<path d="M150.022,291.479c-1.588,2.623-1.971,7.487-0.677,10.279c0.153,0.331,0.632,0.141,0.645-0.175
					c0.069-1.682-0.339-3.33-0.239-5.03c0.099-1.679,0.589-3.282,0.736-4.948C150.51,291.348,150.142,291.281,150.022,291.479
					L150.022,291.479z"/>
			</g>
		</g>
		<g>
			<g>
				<path d="M199.267,312.636c-0.337,1.041-0.657,2.092-1.118,3.087c-0.423,0.912-1.062,1.71-1.462,2.625
					c-0.188,0.43,0.289,0.854,0.667,0.515c1.557-1.396,2.415-4.11,2.566-6.138C199.949,312.336,199.378,312.294,199.267,312.636
					L199.267,312.636z"/>
			</g>
		</g>
		<g>
			<g>
				<path d="M201.489,316.202c-0.317,1.148-0.841,2.1-1.37,3.153c-0.225,0.448,0.394,1.022,0.743,0.573
					c0.795-1.022,1.165-2.364,1.255-3.641C202.143,315.922,201.583,315.861,201.489,316.202L201.489,316.202z"/>
			</g>
		</g>
		<g>
			<g>
				<path d="M125.75,289.394c3.155,1.9,6.462,3.505,9.601,5.48c2.741,1.725,5.619,3.341,8.876,3.774
					c0.479,0.064,0.583-0.741,0.114-0.843c-3.783-0.826-6.877-2.645-10.104-4.712c-2.477-1.587-5.377-3.765-8.412-3.976
					C125.673,289.106,125.63,289.321,125.75,289.394L125.75,289.394z"/>
			</g>
		</g>
		<g>
			<g>
				<path d="M149.644,299.288c7.981,4.136,15.514,9.254,23.69,12.989c3.745,1.71,7.674,2.903,11.705,3.726
					c3.819,0.78,8.34,1.842,12.225,1.424c0.395-0.042,0.543-0.628,0.1-0.74c-4.163-1.048-8.675-0.956-12.91-1.88
					c-4.251-0.927-8.321-2.303-12.23-4.217c-7.557-3.7-14.434-8.918-22.307-11.951C149.542,298.495,149.29,299.104,149.644,299.288
					L149.644,299.288z"/>
			</g>
		</g>
		<g>
			<g>
				<path d="M185.825,356.158c1.268-1.466,2.564-2.92,4.032-4.191c0.83-0.719,5.075-4.492,6.376-3.229
					c0.124,0.12,0.357,0.001,0.3-0.175c-0.65-2.004-3.491,0.065-4.437,0.689c-2.637,1.738-4.956,3.948-6.581,6.667
					C185.403,356.107,185.676,356.331,185.825,356.158L185.825,356.158z"/>
			</g>
		</g>
		<g>
			<g>
				<path d="M176.32,354.991c-3.896-3.857-9.088-6.548-14.631-6.774c-0.157-0.006-0.192,0.24-0.037,0.275
					c5.359,1.222,10.096,3.234,14.234,6.932C176.179,355.686,176.603,355.271,176.32,354.991L176.32,354.991z"/>
			</g>
		</g>
		<g>
			<g>
				<path d="M185.437,358.712c4.769,1.682,8.513,4.654,9.607,9.822c0.239-0.184,0.478-0.368,0.718-0.552
					c-1.235-0.792-2.297-1.771-3.202-2.923c-0.643-0.819-1.103-1.914-1.85-2.64c-0.816-0.792-2.11-1.058-3.08-0.429
					c-0.055,0.036-0.021,0.137,0.047,0.112c2.164-0.8,3.393,2.551,4.409,3.805c0.925,1.141,2.01,2.05,3.183,2.92
					c0.374,0.277,0.793-0.179,0.718-0.552c-0.987-4.91-5.223-9.796-10.476-10.104C185.183,358.151,185.158,358.613,185.437,358.712
					L185.437,358.712z"/>
			</g>
		</g>
		<g>
			<g>
				<path d="M125.178,321.883c4.882-3.018,9.336-6.725,12.008-11.899c0.331-0.64-0.636-1.208-0.968-0.566
					c-2.589,5.013-6.877,8.573-11.606,11.497C124,321.294,124.562,322.264,125.178,321.883L125.178,321.883z"/>
			</g>
		</g>
		<g>
			<g>
				<path d="M183.535,316.206c0.337,5.049,1.084,9.981,0.979,15.065c-0.11,5.33-0.787,10.624-1.95,15.825
					c-0.111,0.494,0.648,0.705,0.76,0.21c1.153-5.121,1.847-10.311,1.98-15.562c0.129-5.115,0.033-10.633-1.348-15.595
					C183.893,315.922,183.518,315.958,183.535,316.206L183.535,316.206z"/>
			</g>
		</g>
		<g>
			<g>
				<path d="M182.619,349.286c-0.476,0.8-0.56,1.847-0.734,2.753c-0.154,0.801-0.469,1.715-0.209,2.509
					c0.05,0.153,0.24,0.171,0.328,0.043c0.491-0.71,0.468-1.719,0.621-2.555c0.157-0.858,0.485-1.762,0.418-2.635
					C183.027,349.183,182.741,349.082,182.619,349.286L182.619,349.286z"/>
			</g>
		</g>
		<g>
			<g>
				<path d="M190.643,316.753c-0.137,3.989,0.017,8,0.055,11.991c0.036,3.726,0.384,7.593,0.008,11.305
					c-0.619,6.115-6.573,9.228-8.8,14.601c-0.149,0.359,0.471,0.623,0.632,0.267c2.343-5.178,8.091-8.08,9.022-13.985
					c0.572-3.628,0.124-7.529,0.063-11.187c-0.072-4.323-0.017-8.674-0.28-12.99C191.316,316.305,190.658,316.299,190.643,316.753
					L190.643,316.753z"/>
			</g>
		</g>
		<g>
			<g>
				<path style="fill:#C1ADA4;" d="M235.909,201.621c-0.084,7.46,7.773,12.167,14.484,12.825c0.534,0.052,0.559-0.716,0.119-0.879
					c-3.149-1.163-6.343-1.757-9.127-3.782c-2.663-1.937-4.625-4.846-4.998-8.164C236.354,201.322,235.913,201.305,235.909,201.621
					L235.909,201.621z"/>
			</g>
		</g>
		<g>
			<g>
				<path style="fill:#C1ADA4;" d="M254.589,214.397c1.054,0.233,2.115,0.218,3.189,0.234c1.09,0.016,2.129,0.057,3.169-0.307
					c0.245-0.086,0.245-0.412,0-0.498c-1.04-0.364-2.079-0.324-3.169-0.307c-1.074,0.016-2.136,0.001-3.189,0.234
					C254.271,213.823,254.271,214.327,254.589,214.397L254.589,214.397z"/>
			</g>
		</g>
		<g>
			<g>
				<path style="fill:#C1ADA4;" d="M183.069,241.428c-0.184-1.859-0.754-3.462-2-4.878c-0.956-1.087-2.957-2.702-4.503-2.307
					c-0.269,0.069-0.398,0.46-0.172,0.653c0.527,0.449,1.147,0.529,1.77,0.823c0.757,0.358,1.44,0.849,2.051,1.42
					c1.222,1.142,2.166,2.691,2.447,4.345C182.699,241.712,183.092,241.661,183.069,241.428L183.069,241.428z"/>
			</g>
		</g>
		<g>
			<g>
				<path style="fill:#CC6144;" d="M274.975,167.302c0.816-2.68-1.907-8.089-5.189-6.944c-0.961,0.335-0.346,0.802,0.405,0.597
					c0.799-0.218,2.35,2.444,2.591,2.903c0.61,1.162,0.713,2.486,1.296,3.634C274.2,167.731,274.909,167.521,274.975,167.302
					L274.975,167.302z"/>
			</g>
		</g>
		<g>
			<g>
				<path style="fill:#CC6144;" d="M273.033,163.431c-0.026-0.893-0.83-1.354-1.66-1.266c-0.44,0.047-0.921,0.195-1.275,0.468
					c-0.212,0.164-0.502,0.521-0.273,0.757c0.126,0.13,0.47-0.014,0.583-0.094c0.326-0.227,0.5-0.607,0.879-0.443
					c0.356,0.154,0.612,0.488,0.727,0.85C272.105,163.992,273.042,163.725,273.033,163.431L273.033,163.431z"/>
			</g>
		</g>
		<g>
			<g>
				<path style="fill:#CC6144;" d="M299.425,163.452c0.142,1.005,0.833,1.663,1.869,1.629c0.041-0.001,0.34-0.079,0.252-0.156
					c-0.255-0.224-0.57-0.361-0.829-0.591c-0.305-0.27-0.626-0.642-0.783-1.018C299.877,163.178,299.404,163.304,299.425,163.452
					L299.425,163.452z"/>
			</g>
		</g>
		<g>
			<g>
				<path style="fill:#C1ADA4;" d="M229.557,231.406c0.368,10.533,1.656,21.017,3.005,31.463c0.692,5.359,0.985,11.5,2.471,16.54
					c0.158,0.537,0.886,0.298,0.814-0.224c-0.001-0.007-0.002-0.013-0.003-0.02c-0.074-0.536-0.887-0.308-0.814,0.224
					c0.001,0.007,0.002,0.013,0.003,0.02c0.271-0.075,0.543-0.15,0.814-0.224c0.072,0.245,0.019-0.885-0.003-1.148
					c-0.091-1.075-0.3-2.149-0.452-3.217c-0.584-4.086-1.139-8.177-1.668-12.271c-1.338-10.358-2.528-20.744-3.498-31.144
					C230.186,230.986,229.542,230.97,229.557,231.406L229.557,231.406z"/>
			</g>
		</g>
		<g>
			<g>
				<path style="fill:#C1ADA4;" d="M247.679,277.386c-4.114,0.899-7.925,2.774-11.737,4.568c-3.939,1.853-8.009,3.605-11.599,6.089
					c-0.257,0.178-0.109,0.63,0.223,0.53c8.14-2.452,15.56-7.331,23.312-10.715C248.158,277.736,247.95,277.327,247.679,277.386
					L247.679,277.386z"/>
			</g>
		</g>
		<g>
			<g>
				<path style="fill:#C1ADA4;" d="M318.478,321.606c-1.092,3.903-1.334,7.734-2.965,11.535c-1.721,4.013-4.261,7.124-6.951,10.505
					c-0.328,0.412,0.167,0.917,0.579,0.579c3.29-2.702,5.719-6.795,7.38-10.659c1.51-3.515,3.058-8.083,2.443-11.96
					C318.924,321.35,318.541,321.383,318.478,321.606L318.478,321.606z"/>
			</g>
		</g>
		<g>
			<g>
				<path style="fill:#C1ADA4;" d="M144.046,286.054c-0.925-3.154-1.656-6.43-1.72-9.727c-0.065-3.39,0.813-6.49,1.329-9.792
					c0.064-0.411-0.497-0.736-0.725-0.306c-3.102,5.83-2.271,14.332,0.494,20.088C143.593,286.667,144.153,286.42,144.046,286.054
					L144.046,286.054z"/>
			</g>
		</g>
		<g>
			<g>
				<path style="fill:#C1ADA4;" d="M153.018,290.413c-0.771-1.999-1.636-3.977-2.207-6.047c-0.214-0.776-1.117-3.247-0.649-3.834
					c1.839-0.851,2.838-0.441,2.997,1.23c0.121,0.714,0.17,1.433,0.147,2.155c0.001,0.334,0.517,0.42,0.594,0.08
					c0.406-1.794-1.171-7.814-3.998-5.585c-1.229,0.969-0.592,3.408-0.326,4.65c0.566,2.644,1.827,5.115,2.889,7.583
					C152.6,290.957,153.142,290.733,153.018,290.413L153.018,290.413z"/>
			</g>
		</g>
		<g>
			<g>
				<path style="fill:#C1ADA4;" d="M172.112,302.255c-2.131-3.435-3.089-6.88-4.179-10.71c-0.065-0.229-0.399-0.178-0.408,0.055
					c-0.164,3.941,1.761,7.969,4.192,10.96C171.898,302.784,172.261,302.495,172.112,302.255L172.112,302.255z"/>
			</g>
		</g>
		<g>
			<g>
				<path style="fill:#C1ADA4;" d="M189.21,308.923c2.976-0.268,6.926-2.491,7.412-5.762c0.042-0.281-0.303-0.584-0.537-0.313
					c-0.929,1.078-1.581,2.307-2.691,3.245c-1.215,1.027-2.742,1.764-4.271,2.185C188.779,308.374,188.832,308.957,189.21,308.923
					L189.21,308.923z"/>
			</g>
		</g>
		<g>
			<g>
				<path style="fill:#C1ADA4;" d="M189.285,305.587c1.941-0.666,4.337-2.39,4.684-4.576c0.042-0.263-0.289-0.552-0.505-0.294
					c-0.65,0.773-1.117,1.656-1.846,2.373c-0.758,0.746-1.675,1.328-2.643,1.76C188.559,305.036,188.854,305.735,189.285,305.587
					L189.285,305.587z"/>
			</g>
		</g>
		<g>
			<g>
				<path style="fill:#CC6144;" d="M298.763,188.831c0.897-0.372,1.522,0.221,2.354,0.451c0.089,0.025,0.337-0.005,0.367-0.119
					c0.179-0.672-0.735-0.902-1.25-0.951c-0.653-0.063-1.364,0.063-1.887,0.477C298.053,188.922,298.649,188.879,298.763,188.831
					L298.763,188.831z"/>
			</g>
		</g>
	</g>
	<g>
		<g>
			<path style="fill:#EED9CE;" d="M588.368,144h-106.5c-9.052,0-16.784,6.528-18.301,15.452l-9.199,54.114
				c-1.927,11.333,6.805,21.674,18.301,21.674h0.54l-4.148,22.183l20.484-22.183h89.624c9.052,0,16.784-6.528,18.301-15.452
				l9.199-54.114C608.595,154.341,599.863,144,588.368,144z"/>
			<g style="opacity:0.16;">
				<g>
					<path d="M527.256,164.401c11.347,0.611,22.728,0.756,34.088,1.007c5.599,0.124,11.198,0.247,16.797,0.371
						c5.691,0.126,11.622,0.731,17.291,0.206c0.585-0.054,0.841-1.029,0.152-1.124c-5.384-0.741-11.024-0.444-16.455-0.568
						c-5.764-0.131-11.527-0.263-17.291-0.394c-11.521-0.262-23.059-0.637-34.582-0.534
						C526.586,163.371,526.594,164.365,527.256,164.401L527.256,164.401z"/>
				</g>
			</g>
			<g style="opacity:0.16;">
				<g>
					<path d="M524.187,178.205c11.085,0.64,22.187,0.951,33.291,0.902c5.473-0.024,10.946-0.133,16.416-0.328
						c5.33-0.189,10.823-0.143,16.097-0.964c0.75-0.117,0.536-1.266-0.174-1.284c-5.448-0.143-10.972,0.493-16.421,0.679
						c-5.47,0.187-10.943,0.289-16.416,0.306c-10.938,0.034-21.874-0.283-32.793-0.918
						C523.154,176.537,523.157,178.145,524.187,178.205L524.187,178.205z"/>
				</g>
			</g>
			<g style="opacity:0.16;">
				<g>
					<path d="M524.266,189.218c10.018,0.907,20.094,1.897,30.151,2.282c10.039,0.384,20.157-0.219,30.187-0.565
						c1.325-0.046,1.33-2.115,0-2.064c-10.041,0.389-20.133,1.142-30.187,0.808c-10.062-0.334-20.087-1.411-30.151-1.777
						C523.408,187.87,523.435,189.143,524.266,189.218L524.266,189.218z"/>
				</g>
			</g>
			<g style="opacity:0.16;">
				<g>
					<path d="M473.233,199.44c28.559,2.372,57.371,2.524,86.012,2.772c6.819,0.059,13.685,0.198,20.499-0.099
						c1.118-0.049,1.127-1.717,0-1.744c-13.225-0.307-26.48-0.031-39.709-0.16c-15.447-0.151-30.895-0.416-46.335-0.931
						c-6.825-0.228-13.649-0.398-20.467-0.799C472.612,198.442,472.623,199.389,473.233,199.44L473.233,199.44z"/>
				</g>
			</g>
			<g style="opacity:0.16;">
				<g>
					<path d="M472.018,209.159c28.24,2.352,56.7,2.769,85.023,3.127c6.742,0.085,13.535,0.246,20.273-0.049
						c1.118-0.049,1.127-1.717,0-1.744c-13.222-0.314-26.469-0.104-39.696-0.301c-15.123-0.226-30.246-0.58-45.36-1.147
						c-6.749-0.253-13.498-0.45-20.24-0.847C471.397,208.161,471.409,209.108,472.018,209.159L472.018,209.159z"/>
				</g>
			</g>
			<g style="opacity:0.16;">
				<g>
					<path d="M477.376,158.908c-1.335,4.86-1.447,9.878-1.467,14.887c-0.01,2.542-0.007,5.089-0.197,7.626
						c-0.199,2.663-1.15,5.222-1.285,7.846c-0.048,0.931,1.258,1.212,1.705,0.462c1.058-1.776,1.201-4.064,1.442-6.096
						c0.317-2.667,0.359-5.355,0.363-8.037c0.009-5.444-0.119-10.863,1.427-16.14C479.739,158.18,477.728,157.627,477.376,158.908
						L477.376,158.908z"/>
				</g>
			</g>
			<g style="opacity:0.16;">
				<g>
					<path d="M479.381,159.593c12.846,0.252,25.626,0.665,38.406,2.095c-0.391-0.513-0.781-1.026-1.172-1.539
						c-1.373,9.809-2.249,19.593-2.228,29.504c0.004,1.944,3.034,1.947,3.021,0c-0.066-9.736,0.347-19.521,1.595-29.18
						c0.09-0.697-0.633-1.157-1.216-1.216c-12.724-1.286-25.628-1.971-38.406-1.203
						C478.398,158.113,478.382,159.574,479.381,159.593L479.381,159.593z"/>
				</g>
			</g>
			<g style="opacity:0.16;">
				<g>
					<path d="M476.646,191.119c6.326-0.718,12.689-0.977,19.051-0.702c3.024,0.131,6.043,0.375,9.048,0.735
						c1.752,0.21,3.497,0.473,5.243,0.733c1.494,0.223,2.614,0.607,4.035,0.057c0.733-0.283,1.197-1.277,0.5-1.894
						c-2.048-1.812-5.717-1.669-8.354-1.942c-3.321-0.344-6.656-0.545-9.994-0.609c-6.646-0.128-13.269,0.33-19.849,1.254
						C474.995,188.938,475.294,191.273,476.646,191.119L476.646,191.119z"/>
				</g>
			</g>
			<g style="opacity:0.16;">
				<g>
					<path d="M482.58,164.993c-0.485,5.16-0.864,10.339-1.078,15.518c-0.052,1.268,1.999,1.276,1.975,0
						c-0.098-5.188,0.018-10.343,0.41-15.518C483.951,164.15,482.657,164.165,482.58,164.993L482.58,164.993z"/>
				</g>
			</g>
			<g style="opacity:0.16;">
				<g>
					<path d="M482.708,181.503c10.114,0.636,20.346,1.164,30.481,1.181c1.299,0.002,1.28-1.929,0-2.004
						c-10.113-0.593-20.353-0.684-30.481-0.658C481.747,180.024,481.763,181.444,482.708,181.503L482.708,181.503z"/>
				</g>
			</g>
			<g style="opacity:0.16;">
				<g>
					<path d="M487.254,177.186c0.405-1.213,0.81-2.425,1.215-3.638c0.34-1.017,0.637-3.054,1.377-3.834
						c2.058-2.167,4.98,4.476,5.608,5.41c1.197,1.782,3.339,3.129,4.925,0.898c1.056-1.485,1.105-3.512,1.9-5.12
						c0.055-0.846,0.514-1.357,1.377-1.534c0.368,0.466,0.737,0.931,1.105,1.397c0.605,0.765,1.177,1.695,1.966,2.29
						c0.784,0.592,1.676,0.813,2.612,0.418c1.56-0.659,1.593-2.851,3.042-3.509c3.161-1.434-2.667-4.787-2.317-1.329
						c0.118,1.168-1.032,3.23-2.343,2.55c-0.81-0.42-1.564-1.78-2.178-2.453c-0.766-0.839-1.757-2.125-3.088-1.603
						c-0.959,0.376-1.165,1.543-1.483,2.389c-0.465,1.238-0.966,2.465-1.459,3.692c-0.068,1.097-0.641,1.65-1.719,1.658
						c-0.402-0.488-0.768-1.001-1.097-1.54c-1.328-1.939-3.098-6.285-6.171-5.766c-1.256,0.212-1.837,1.128-2.337,2.208
						c-1.018,2.199-1.596,4.722-2.364,7.021C485.522,177.698,486.953,178.087,487.254,177.186L487.254,177.186z"/>
				</g>
			</g>
		</g>
		<g>
			<path style="fill:#D6CED7;" d="M432.576,55.219h-70.15c-5.962,0-11.055,4.3-12.054,10.178l-6.059,35.644
				c-1.269,7.465,4.483,14.276,12.054,14.276h0.355l-7.024,10.217l17.785-10.217h59.034c5.962,0,11.055-4.3,12.054-10.178
				l6.06-35.644C445.899,62.03,440.148,55.219,432.576,55.219z"/>
			<g style="opacity:0.16;">
				<g>
					<path d="M360.628,67.675c12.754,0.655,25.535,0.909,38.301,1.255c6.301,0.171,12.601,0.341,18.902,0.512
						c6.411,0.174,12.998,0.794,19.399,0.373c0.645-0.042,0.62-0.91,0-0.984c-6.211-0.747-12.65-0.501-18.902-0.673
						c-6.466-0.178-12.933-0.357-19.399-0.535c-12.762-0.352-25.534-0.796-38.301-0.838
						C360.052,66.783,360.058,67.646,360.628,67.675L360.628,67.675z"/>
				</g>
			</g>
			<g style="opacity:0.16;">
				<g>
					<path d="M357.396,76.784c12.275,0.59,24.56,0.968,36.848,1.116c5.978,0.072,11.957,0.091,17.935,0.057
						c6.283-0.036,12.669,0.149,18.93-0.401c0.713-0.063,0.733-1.095,0-1.125c-6.122-0.248-12.302,0.123-18.431,0.158
						c-6.144,0.036-12.289,0.016-18.433-0.06c-12.289-0.152-24.573-0.534-36.848-1.128
						C356.507,75.358,356.509,76.742,357.396,76.784L357.396,76.784z"/>
				</g>
			</g>
			<g style="opacity:0.16;">
				<g>
					<path d="M355.448,85.003c23.837,1.848,47.871,2.037,71.759,1.197c0.872-0.031,0.876-1.392,0-1.359
						c-23.947,0.88-47.83,0.432-71.759-0.705C354.887,84.109,354.897,84.96,355.448,85.003L355.448,85.003z"/>
				</g>
			</g>
			<g style="opacity:0.16;">
				<g>
					<path d="M353.538,93.87c16.388,1.442,33.078,2.362,49.532,1.772c0.737-0.026,0.742-1.136,0-1.148
						c-16.534-0.273-33.01-0.368-49.532-1.257C353.127,93.215,353.137,93.835,353.538,93.87L353.538,93.87z"/>
				</g>
			</g>
		</g>
		<g>
			<path style="fill:#D6CED7;" d="M182.949,75.167H86.927c-8.161,0-15.132,5.886-16.5,13.932l-8.294,48.79
				c-1.737,10.218,6.136,19.542,16.5,19.542h81.163l14.157,17.841l0.573-17.841h0.129c8.161,0,15.132-5.886,16.5-13.932l8.294-48.79
				C201.186,84.491,193.313,75.167,182.949,75.167z"/>
			<g style="opacity:0.29;">
				<g>
					<path d="M121.003,93.187c11.378,0.495,22.772,0.694,34.157,0.96c5.61,0.131,11.221,0.263,16.831,0.394
						c5.745,0.134,11.586,0.576,17.326,0.294c0.472-0.023,0.46-0.681,0-0.725c-5.561-0.536-11.246-0.38-16.831-0.513
						c-5.775-0.138-11.551-0.275-17.326-0.413c-11.383-0.271-22.771-0.61-34.157-0.653C120.579,92.53,120.583,93.169,121.003,93.187
						L121.003,93.187z"/>
				</g>
			</g>
			<g style="opacity:0.29;">
				<g>
					<path d="M117.975,105.547c10.943,0.607,21.9,0.926,32.86,0.93c10.885,0.004,22.07,0.217,32.897-0.994
						c0.517-0.058,0.547-0.827,0-0.829c-10.957-0.031-21.927,0.82-32.897,0.813c-10.96-0.007-21.917-0.329-32.86-0.939
						C117.32,104.492,117.322,105.511,117.975,105.547L117.975,105.547z"/>
				</g>
			</g>
			<g style="opacity:0.29;">
				<g>
					<path d="M77.375,115.738c32.649,2.373,65.516,2.708,98.224,1.527c0.796-0.029,0.8-1.269,0-1.24
						c-32.769,1.184-65.485,0.648-98.224-1.078C76.864,114.92,76.871,115.701,77.375,115.738L77.375,115.738z"/>
				</g>
			</g>
			<g style="opacity:0.29;">
				<g>
					<path d="M74.76,127.928c22.456,1.853,45.263,3.045,67.8,2.308c0.673-0.022,0.677-1.039,0-1.048
						c-22.639-0.293-45.186-0.487-67.8-1.838C74.387,127.329,74.393,127.898,74.76,127.928L74.76,127.928z"/>
				</g>
			</g>
			<g style="opacity:0.29;">
				<g>
					<path d="M80.772,88.207c-0.68,4.705-1.679,9.545-1.997,14.285c-0.191,2.842,1.162,4.207,3.919,4.674
						c4.758,0.806,9.715,0.971,14.519,1.402c2.879,0.258,8.126,1.437,10.515-0.937c1.164-1.157,0.868-2.932,0.789-4.414
						c-0.113-2.108-0.351-4.211-0.355-6.324c-0.004-2.651,0.769-4.823,1.36-7.338c0.271-1.153,0.326-2.303-0.453-3.288
						c-1.881-2.381-6.588-1.512-9.182-1.503c-5.266,0.019-10.537,0.161-15.802,0.259c-1.641,0.031-1.568,2.686,0,2.503
						c6.831-0.798,13.861-1.298,20.744-0.97c1.514,0.072,3.063-0.024,3.032,2.541c-0.007,0.591-0.446,1.305-0.611,1.866
						c-0.397,1.349-0.585,2.743-0.648,4.145c-0.067,1.496,0.042,2.998,0.169,4.488c0.132,1.548,0.638,3.433,0.429,4.972
						c-0.37,2.736-2.573,3.039-4.902,2.974c-1.698-0.047-3.395-0.262-5.087-0.403c-3.457-0.289-6.917-0.551-10.376-0.827
						c-1.409-0.112-4.097,0.195-5.354-0.53c-0.924-0.533-1.692-2.293-1.75-3.291c-0.057-0.978,0.338-2.457,0.478-3.47
						c0.485-3.519,1.084-7.017,1.592-10.531C81.902,87.817,80.871,87.526,80.772,88.207L80.772,88.207z"/>
				</g>
			</g>
			<g style="opacity:0.29;">
				<g>
					<path d="M90.753,99.356c0.426-2.301,0.625-4.641,0.904-6.963c-0.122,0.212-0.243,0.424-0.365,0.636
						c0.417-0.277,4.495,4.619,4.955,5.141c0.122-0.461,0.243-0.921,0.365-1.382c-1.769,0.719-3.549,1.412-5.311,2.148
						c-0.984,0.411-0.57,2.038,0.45,1.631c1.775-0.708,3.533-1.459,5.301-2.185c0.583-0.239,0.81-0.88,0.365-1.382
						c-1.126-1.267-2.275-2.51-3.48-3.702c-0.675-0.668-1.714-2.063-2.851-1.817c-1.106,0.239-0.952,1.446-1.039,2.329
						c-0.176,1.795-0.389,3.586-0.445,5.389C89.58,99.848,90.631,100.016,90.753,99.356L90.753,99.356z"/>
				</g>
			</g>
		</g>
	</g>
	<g>
		<g>
			<circle style="fill:#2D2442;" cx="503.583" cy="286.333" r="2.333"/>
			<circle style="fill:#2D2442;" cx="510.958" cy="286.333" r="2.333"/>
			<circle style="fill:#2D2442;" cx="518.333" cy="286.333" r="2.333"/>
		</g>
		<g>
			<circle style="fill:#2D2442;" cx="512.583" cy="111" r="2.333"/>
			<circle style="fill:#2D2442;" cx="519.958" cy="111" r="2.333"/>
			<circle style="fill:#2D2442;" cx="527.333" cy="111" r="2.333"/>
		</g>
		<g>
			<circle style="fill:#2D2442;" cx="93.958" cy="200.333" r="2.333"/>
			<circle style="fill:#2D2442;" cx="101.333" cy="200.333" r="2.333"/>
			<circle style="fill:#2D2442;" cx="108.708" cy="200.333" r="2.333"/>
		</g>
	</g>
</g>
</svg>
